<svg xmlns="http://www.w3.org/2000/svg" viewBox="0 0 540 136">
  <path d="M66.6 64.8c-.4 0-.6.8-.6.8h1.1c0-.2-.1-.8-.5-.8zm1.7-.1c-.6 0-.7.6-.7.9H69s-.1-.9-.7-.9z" fill="#0872B9"/>
  <circle cx="69.2" cy="63" r=".9" fill="#0872B9"/>
  <path d="M71.8 64.7c-.4 0-.5.9-.5.9h.9s0-.9-.4-.9zm-1.6 0c-.6 0-.7.9-.7.9h1.3s0-.9-.6-.9zm1.1 6.3h1.3v-2.4h-1.3V71z" fill="#0872B9"/>
  <path d="M65 63.6c0-.2.7-2.5 4.1-2.5 3.3 0 4.1 2.3 4.1 2.6v10.5h.6V63.4c0-.5-.9-2.9-4.6-2.9-3.8 0-4.6 2.5-4.6 2.9v10.8h.6c-.2-3.5-.2-10.5-.2-10.6z" fill="#0872B9"/>
  <path d="M71.3 71.3v2.2h-.6v-2.2H70V71h.7v-2.4h-.6v-.5h.6v-1.7h.6v1.7h1.4v-4.5c0-.3-.9-2.2-3.6-2.2s-3.6 1.9-3.6 2.2v10.5h7.2v-2.8h-1.4zm-2.1-9.5c.7 0 1.2.5 1.2 1.2s-.5 1.2-1.2 1.2S68 63.7 68 63c0-.6.5-1.2 1.2-1.2zm.3 11.7H69v-2.2h-1.5v2.2H67v-2.2h-1V71h1.1v-2.2h.5V71H69v-2.4h-3v-.5h1.1v-1.6h.5v1.6H69V66h-3v-.4h-.4c0-.2.1-1.3 1-1.3.5 0 .8.6.8.6s.2-.6.9-.6c.6 0 1 .7 1 .7s.3-.7.9-.7c.6 0 .9.6.9.6s.1-.6.8-.6c.7 0 .8 1.3.8 1.3h-.4v.3h-2.7v7.6z" fill="#0872B9"/>
  <path d="M66 64.6s.4-.7 1-.7h4.4s.9.6.9.8l-.8-.3h-4.8l-.7.2zm14.9 19.7c-.4 0-.6.8-.6.8h1.1c0-.2-.1-.8-.5-.8zm1.7-.1c-.6 0-.7.6-.7.9h1.4c.1 0-.1-.9-.7-.9z" fill="#0872B9"/>
  <circle cx="83.5" cy="82.5" r=".9" fill="#0872B9"/>
  <path d="M86.1 84.2c-.4 0-.5.9-.5.9h.9c.1 0 0-.9-.4-.9zm-1.6 0c-.6 0-.7.9-.7.9h1.3s0-.9-.6-.9zm1.2 6.3H87v-2.4h-1.3v2.4z" fill="#0872B9"/>
  <path d="M83.4 79.9c-3.8 0-4.6 2.5-4.6 2.9V96H88V82.8s-.8-2.9-4.6-2.9zm-.8 3.9c.6 0 1 .7 1 .7s.3-.7.9-.7c.6 0 .9.6.9.6s.1-.6.8-.6c.7 0 .8 1.3.8 1.3h-.4v.3h-2.7V93h-.5v-2.2h-1.5V93h-.5v-2.2h-1.1v-.3h1.1v-2.2h.5v2.2h1.5v-2.4h-3.1v-.5h1.1V86h.5v1.6h1.5v-2.2h-3.1V85h-.4c0-.2.1-1.3 1-1.3.5 0 .8.6.8.6s.2-.5.9-.5zm-.3-1.2c0-.7.5-1.2 1.2-1.2s1.2.5 1.2 1.2-.5 1.2-1.2 1.2c-.6 0-1.2-.6-1.2-1.2zm2.2 12.6c-.1.3-.6.5-.6.5s-.2 0-.5-.3-.3-.8-.3-.8.1-.4.4-.4c.3 0 .4.3.4.3s.2-.1.2-.4c0-.3-.5-.3-.5-.3l-.4.1s-.5.3-.5.9c0 .6.4.8.4.8h-.3c-.2 0-.5-.4-.5-.4s-.1-.5-.3-.4c-.1.3.1.8.1.8h-1.9v-1.9h3.6s.1 0 .3.2c.6.4.5 1 .4 1.3zm2.1.5h-1.9s.3-.3.3-1-.3-1-.3-1h1.9v2zm.9-.1H87v-4.8h-1.3V93h-.6v-2.2h-.7v-.3h.7v-2.4h-.6v-.5h.6v-1.7h.6v1.7H87v-4.5c0-.3-.9-2.2-3.6-2.2s-3.6 1.9-3.6 2.2v12.4h-.5V82.9c0-.2.7-2.5 4.1-2.5 3.3 0 4.1 2.3 4.1 2.6v12.6z" fill="#0872B9"/>
  <path d="M80.3 84.1s.4-.7 1-.7h4.4c.3 0 .9.6.9.8l-.8-.3H81l-.7.2zm.3-19.3c-.4 0-.6.8-.6.8h1.1c0-.2-.1-.8-.5-.8zm1.7-.1c-.6 0-.7.6-.7.9H83s-.1-.9-.7-.9z" fill="#0872B9"/>
  <circle cx="83.2" cy="63" r=".9" fill="#0872B9"/>
  <path d="M85.8 64.7c-.4 0-.5.9-.5.9h.9c.1 0 0-.9-.4-.9zm-1.6 0c-.6 0-.7.9-.7.9h1.3s0-.9-.6-.9zm1.2 6.3h1.3v-2.4h-1.3V71z" fill="#0872B9"/>
  <path d="M79 63.6c0-.2.7-2.5 4.1-2.5 3.3 0 4.1 2.3 4.1 2.6v10.5h.6V63.4c0-.5-.9-2.9-4.6-2.9-3.8 0-4.6 2.5-4.6 2.9v10.8h.6c-.2-3.5-.2-10.5-.2-10.6z" fill="#0872B9"/>
  <path d="M85.4 71.3v2.2h-.6v-2.2h-.7V71h.7v-2.4h-.6v-.5h.6v-1.7h.6v1.7h1.4v-4.5c0-.3-.9-2.2-3.6-2.2s-3.6 1.9-3.6 2.2v10.5h7.2v-2.8h-1.4zm-2.2-9.5c.7 0 1.2.5 1.2 1.2s-.5 1.2-1.2 1.2S82 63.7 82 63c0-.6.5-1.2 1.2-1.2zm.3 11.7H83v-2.2h-1.5v2.2H81v-2.2h-1V71h1.1v-2.2h.5V71H83v-2.4h-3v-.5h1.1v-1.6h.5v1.6H83V66h-3v-.4h-.4c0-.2.1-1.3 1-1.3.5 0 .8.6.8.6s.2-.6.9-.6c.6 0 1 .7 1 .7s.3-.7.9-.7c.6 0 .9.6.9.6s.1-.6.8-.6c.7 0 .8 1.3.8 1.3h-.4v.3h-2.7v7.6z" fill="#0872B9"/>
  <path d="M80 64.6s.4-.7 1-.7h4.4c.3 0 .9.6.9.8l-.8-.3h-4.8l-.7.2zM52 84.3c-.4 0-.6.8-.6.8h1.1c0-.2-.1-.8-.5-.8zm1.7-.1c-.6 0-.7.6-.7.9h1.4c.1 0-.1-.9-.7-.9z" fill="#0872B9"/>
  <circle cx="54.6" cy="82.6" r=".9" fill="#0872B9"/>
  <path d="M57.2 84.2c-.4 0-.5.9-.5.9h.9c.1 0 0-.9-.4-.9zm-1.6 0c-.6 0-.7.9-.7.9h1.3s0-.9-.6-.9zm1.2 6.3h1.3v-2.4h-1.3v2.4z" fill="#0872B9"/>
  <path d="M54.5 79.9c-3.8 0-4.6 2.5-4.6 2.9V96h9.3V82.8s-.9-2.9-4.7-2.9zm-.8 4c.6 0 1 .7 1 .7s.3-.7.9-.7c.6 0 .9.6.9.6s.1-.6.8-.6c.7 0 .8 1.3.8 1.3h-.4v.3H55V93h-.5v-2.2H53V93h-.5v-2.2h-1.1v-.3h1.1v-2.2h.5v2.2h1.5v-2.4h-3.1v-.5h1.1V86h.5v1.6h1.5v-2.2h-3.1V85H51c0-.2.1-1.3 1-1.3.5 0 .8.6.8.6s.2-.4.9-.4zm-.3-1.3c0-.7.5-1.2 1.2-1.2s1.2.5 1.2 1.2-.5 1.2-1.2 1.2-1.2-.6-1.2-1.2zm2.2 12.6c-.1.3-.6.5-.6.5s-.2 0-.5-.3-.3-.8-.3-.8.1-.4.4-.4c.3 0 .4.3.4.3s.2-.1.2-.4c0-.3-.5-.3-.5-.3l-.4.2s-.5.3-.5.9c0 .6.4.8.4.8h-.3c-.2 0-.5-.4-.5-.4s-.1-.5-.3-.4c-.1.3.1.8.1.8h-1.9v-1.9H55s.1 0 .3.2c.5.3.4.9.3 1.2zm2.1.5h-1.9s.3-.3.3-1-.3-1-.3-1h1.9v2zm.9 0h-.5v-4.8h-1.3V93h-.6v-2.2h-.7v-.3h.7v-2.4h-.6v-.5h.6v-1.7h.6v1.7h1.4v-4.5c0-.3-.9-2.2-3.6-2.2S51 82.8 51 83.1v12.4h-.5V82.9c0-.2.7-2.5 4.1-2.5 3.3 0 4.1 2.3 4.1 2.6-.1.5-.1 12.7-.1 12.7z" fill="#0872B9"/>
  <path d="M51.4 84.1s.4-.7 1-.7h4.4s.9.6.9.8l-.7-.3h-4.8l-.8.2zm.4-19.3c-.4 0-.6.8-.6.8h1.1c.1-.2 0-.8-.5-.8zm1.8-.1c-.6 0-.7.6-.7.9h1.4s-.1-.9-.7-.9z" fill="#0872B9"/>
  <circle cx="54.5" cy="63" r=".9" fill="#0872B9"/>
  <path d="M57.1 64.7c-.4 0-.5.9-.5.9h.9s0-.9-.4-.9zm-1.6 0c-.6 0-.7.9-.7.9h1.3s0-.9-.6-.9zm1.1 6.3H58v-2.4h-1.3V71z" fill="#0872B9"/>
  <path d="M50.3 63.6c0-.2.7-2.5 4.1-2.5 3.3 0 4.1 2.3 4.1 2.6v10.5h.6V63.4c0-.5-.9-2.9-4.6-2.9-3.8 0-4.6 2.5-4.6 2.9v10.8h.6c-.2-3.5-.2-10.5-.2-10.6z" fill="#0872B9"/>
  <path d="M56.6 71.3v2.2H56v-2.2h-.7V71h.7v-2.4h-.6v-.5h.6v-1.7h.6v1.7H58v-4.5c0-.3-.9-2.2-3.6-2.2s-3.6 1.9-3.6 2.2v10.5H58v-2.8h-1.4zm-2.1-9.5c.7 0 1.2.5 1.2 1.2s-.5 1.2-1.2 1.2-1.2-.5-1.2-1.2c0-.6.5-1.2 1.2-1.2zm.3 11.7h-.5v-2.2h-1.5v2.2h-.5v-2.2h-1.1V71h1.1v-2.2h.5V71h1.5v-2.4h-3.1v-.5h1.1v-1.6h.5v1.6h1.5V66h-3.1v-.4h-.4c0-.2.1-1.3 1-1.3.5 0 .8.6.8.6s.2-.6.9-.6c.6 0 1 .7 1 .7s.3-.7.9-.7c.6 0 .9.6.9.6s.1-.6.8-.6c.7 0 .8 1.3.8 1.3h-.4v.3h-2.7v7.6z" fill="#0872B9"/>
</svg>
